<?xml version="1.0" encoding="UTF-8"?> <svg xmlns="http://www.w3.org/2000/svg" xmlns:xlink="http://www.w3.org/1999/xlink" viewBox="0 0 50 50" fill="#ffffff"><g id="surface1" fill="#ffffff"><path style=" " d="M 0 7 L 0 39 L 50 39 L 50 7 Z M 13.1875 17 L 16.6875 17 L 16 21.1875 L 20.59375 21.1875 L 21.3125 17 L 24.8125 17 L 22.8125 29 L 19.3125 29 L 20.09375 24.09375 L 15.5 24.09375 L 14.6875 29 L 11.1875 29 Z M 28.40625 17 L 35.09375 17 C 38.792969 17 40.195313 18.289063 39.59375 21.6875 L 39.1875 24.1875 C 38.6875 27.488281 37.292969 29 33.59375 29 L 26.5 29 L 28.09375 19.8125 Z M 31.6875 19.8125 L 30.59375 26.1875 L 33.59375 26.1875 C 34.894531 26.1875 35.488281 25.488281 35.6875 24.1875 L 36.09375 21.6875 C 36.394531 20.085938 35.886719 19.8125 34.6875 19.8125 Z M 10.8125 41 C 10.261719 41.050781 9.855469 41.542969 9.90625 42.09375 C 9.957031 42.644531 10.449219 43.050781 11 43 L 39 43 C 39.359375 43.003906 39.695313 42.816406 39.878906 42.503906 C 40.058594 42.191406 40.058594 41.808594 39.878906 41.496094 C 39.695313 41.183594 39.359375 40.996094 39 41 L 11 41 C 10.96875 41 10.9375 41 10.90625 41 C 10.875 41 10.84375 41 10.8125 41 Z " fill="#ffffff"></path></g></svg> 